<svg xmlns="http://www.w3.org/2000/svg" width="20.625" height="19.719" viewBox="0 0 20.625 19.719">
  <defs>
    <style>
      .cls-1 {
        fill: #fff;
        fill-rule: evenodd;
      }
    </style>
  </defs>
  <path id="Корзина" class="cls-1" d="M799.576,33.46l-1.2,8.912a2.033,2.033,0,0,1-1.882,1.635H785.61a2.028,2.028,0,0,1-1.879-1.635l-1.469-10.287a3.668,3.668,0,0,1-.137-1.055H780a1,1,0,0,1,0-2h4a1,1,0,0,1,1,1,0.99,0.99,0,0,1-.9.979h13.965C799.172,31.01,799.84,32.141,799.576,33.46Zm-13.845,8.518-1.313-9h13.206s-0.031.2-.031,0.2l-1.186,8.788c-0.008.011-.009,0.014,0,0.014H785.731Zm0.515,3.009a1.874,1.874,0,1,1-1.875,1.874A1.874,1.874,0,0,1,786.246,44.987Zm9,0a1.874,1.874,0,1,1-1.875,1.874A1.874,1.874,0,0,1,795.246,44.987Z" transform="translate(-779 -29.031)"/>
</svg>
